<svg id="_5" data-name="5" xmlns="http://www.w3.org/2000/svg" viewBox="0 0 390.8 390.8"><defs><style>.cls-1{fill:#00c5e9;}.cls-2{fill:#004dd4;}</style></defs><title>アートボード 1</title><polygon class="cls-1" points="337.7 290.4 390.8 165.6 359.3 91.1 327.7 93.9 344.9 148.4 309.8 189.3 247.4 55.9 197.9 0 93.9 15.1 109.7 52.3 172.8 48 201.5 105.4 122.6 73.1 86 77.4 0 111.9 23.7 139.8 95.4 116.9 147 148.4 59.5 152.7 38 174.3 3.6 217.3 30.1 230.2 69.6 194.3 126.9 200.1 128.1 209.2 105.9 209.9 71.3 219.6 39.4 268.1 68.8 275.4 97.4 243.7 132.8 244.4 152.7 303.3 202.2 363.6 165.6 512 290.4 512 309.8 350.7 337.7 290.4"/><polygon class="cls-2" points="309.8 350.7 390.8 165.6 280.4 317.7 246.9 286.2 270.4 178.6 235 92.1 188.6 35.1 105.4 39.4 109.7 52.3 172.8 48 201.5 105.4 205.8 128.4 101.1 96.8 13.6 125.5 23.7 139.8 95.4 116.9 147 148.4 161.4 169.9 68.1 177.1 17.9 223 30.1 230.2 69.6 194.3 135.5 198.6 138.4 221.6 89.6 228.8 56.7 267.5 68.8 275.4 97.4 243.7 132.8 244.4 144.1 274.6 223.1 232.7 223.7 292.6 237.4 334.9 152.7 303.3 202.2 363.6 245.2 365.7 204.4 512 290.4 512 309.8 350.7"/></svg>